<?xml version="1.0" encoding="utf-8"?>
<!-- Generator: Adobe Illustrator 24.1.2, SVG Export Plug-In . SVG Version: 6.00 Build 0)  -->
<svg version="1.1" id="Layer_1" xmlns="http://www.w3.org/2000/svg" xmlns:xlink="http://www.w3.org/1999/xlink" x="0px" y="0px"
	 width="1500px" height="1500px" viewBox="0 0 1500 1500" enable-background="new 0 0 1500 1500" xml:space="preserve">
<g>
	<path id="Ellipse_1_copy_11_2_" fill-rule="evenodd" clip-rule="evenodd" fill="#F25022" d="M99,411.6
		c45.2-171,143.5-314.7,293.6-372.9c143-61.6,335.9-41.5,487.6,6.9c151.7,49.2,252.3,127.9,311.9,236.1
		c59.3,107.8,79.4,249.6,48.1,401.4c-31.4,153-115.7,311-250.7,425.8c-134.8,115.6-327,189.2-496.4,124.8
		c-172.9-63.6-289.9-203.7-358.2-348.2C68.5,738.2,51.6,590.5,99,411.6z"/>
	<path id="Ellipse_1_copy_12_2_" fill-rule="evenodd" clip-rule="evenodd" fill="#EF03E7" d="M309.7,977.2
		c-46.4-170.7-33.1-344.3,67.8-469.8c93.1-124.8,270.1-203.9,425.7-237.8c156-33.2,282.5-15.4,388.2,48.5
		c105.3,63.7,193.6,176.5,242.3,323.6c49.3,148.2,55.3,327.2-4.3,494.1c-58.9,167.5-188.6,327.4-367.5,356.2
		c-181.5,31.4-352.9-31.5-484.3-122.5C446.5,1275.3,358,1155.8,309.7,977.2z"/>
	<path id="Ellipse_1_copy_10_2_" fill-rule="evenodd" clip-rule="evenodd" fill="#FFB900" d="M539.5,257.1
		c172.5-43,346.6-25.9,470.5,78c123.4,96.2,199.1,275.7,229.9,432.7c30.1,157.4,56,264.5-10.3,369.3
		c-66.2,104.4-255.6,205.2-404.4,251c-149.9,46.4-302.2,53.9-468.7-9.5c-167.1-62.7-324.9-196.4-350.1-376.8
		C-21.4,818.9,45.4,648,139.6,518C237.2,388.2,359,301.9,539.5,257.1z"/>
	<path id="Ellipse_1_copy_13_2_" fill-rule="evenodd" clip-rule="evenodd" fill="#00A4EF" d="M946.9,1309.2
		c-177.5,28.7-319.1-29.1-448-125.5c-128-88.7-184.2-229.9-223.5-384.3c-38.7-154.7-25.3-281.8,34.9-389.7
		c59.9-107.4,169.6-199.7,314.9-253.5c146.4-54.5,325-66.8,494-13.1c169.5,53,333.8,177,368.9,354.8
		c37.8,180.3-19.1,353.8-105.4,488.3C1293,1120.6,1129.6,1279.8,946.9,1309.2z"/>
	<path id="Ellipse_1_copy_9_2_" fill-rule="evenodd" clip-rule="evenodd" fill="#03F119" d="M789.2,162.4
		c176.9-0.6,341.1,57.2,436.2,187.1c96.5,122.2,127.1,313.7,119.5,472.8c-8.3,159.2-53.1,278.2-142.1,363.7
		c-88.8,85.2-225.8,140-380.5,149c-155.9,9.3-330.3-31.2-476.2-132C199.6,1102.7,78.7,936,97.1,755.8
		C113.8,572.3,218.9,423,340.8,319.6C465.9,217.4,604.2,162.9,789.2,162.4z"/>
	<path fill-rule="evenodd" clip-rule="evenodd" fill="#FFFFFF" d="M1092.3,751.5C1092.3,751.5,1092.3,751.5,1092.3,751.5
		L1092.3,751.5c0,67.9-55,122.9-122.9,123h-93.2v92.1c0,68.7-55.7,124.5-124.5,124.5h0c-68.7,0-124.5-55.7-124.5-124.5c0,0,0,0,0,0
		v-93.1h-96.3c-67.9,0-122.9-55-122.9-122.9v0c0-67.9,55-122.9,122.9-122.9h95.8v-92.1c0-68.8,55.7-124.5,124.5-124.5h0
		c68.8,0,124.5,55.7,124.5,124.5v93.2h93.7C1037.3,628.6,1092.3,683.6,1092.3,751.5z"/>
</g>
</svg>
